<?xml version="1.0" encoding="UTF-8" standalone="no"?>
<!-- Created with Inkscape (http://www.inkscape.org/) -->

<svg
   xmlns:dc="http://purl.org/dc/elements/1.1/"
   xmlns:cc="http://creativecommons.org/ns#"
   xmlns:rdf="http://www.w3.org/1999/02/22-rdf-syntax-ns#"
   xmlns:svg="http://www.w3.org/2000/svg"
   xmlns="http://www.w3.org/2000/svg"
   xmlns:sodipodi="http://sodipodi.sourceforge.net/DTD/sodipodi-0.dtd"
   xmlns:inkscape="http://www.inkscape.org/namespaces/inkscape"
   id="svg4136"
   version="1.1"
   inkscape:version="0.91 r13725"
   xml:space="preserve"
   width="50mm"
   height="50mm"
   viewBox="0 0 177.16534 177.16536"
   sodipodi:docname="twitter_ava.svg"><metadata
     id="metadata4142"><rdf:RDF><cc:Work
         rdf:about=""><dc:format>image/svg+xml</dc:format><dc:type
           rdf:resource="http://purl.org/dc/dcmitype/StillImage" /><dc:title /></cc:Work></rdf:RDF></metadata><defs
     id="defs4140" /><sodipodi:namedview
     pagecolor="#ffffff"
     bordercolor="#666666"
     borderopacity="1"
     objecttolerance="10"
     gridtolerance="10"
     guidetolerance="10"
     inkscape:pageopacity="0"
     inkscape:pageshadow="2"
     inkscape:window-width="2560"
     inkscape:window-height="1381"
     id="namedview4138"
     showgrid="false"
     inkscape:document-units="mm"
     units="mm"
     inkscape:zoom="2.9374587"
     inkscape:cx="292.84044"
     inkscape:cy="10.565445"
     inkscape:window-x="1600"
     inkscape:window-y="27"
     inkscape:window-maximized="1"
     inkscape:current-layer="g4144" /><g
     id="g4144"
     inkscape:groupmode="layer"
     inkscape:label="ink_ext_XXXXXX"
     transform="matrix(1.25,0,0,-1.25,0,177.16537)"><g
       id="g4271"><path
         d="m 139.0528,73.644955 c -0.0779,0.47722 -0.20662,0.934871 -0.38363,1.370638 -0.0206,0.07274 -0.0431,0.144827 -0.0708,0.216918 -0.1989,0.534892 -0.41453,1.042751 -0.64174,1.510057 -0.25747,0.531031 -0.63145,1.130934 -1.1393,1.827389 l -0.10299,0.131309 c -0.89406,1.282197 -1.97994,1.842836 -2.76522,2.087432 -0.46667,0.144827 -0.96036,0.217562 -1.47466,0.217562 -0.81553,0 -1.67677,-0.176367 -2.6294,-0.540042 l -0.21692,-0.08303 -0.0901,-0.0354 c -1.60661,-0.677144 -3.22609,-1.437966 -4.81404,-2.262511 -1.55833,-0.806523 -3.10186,-1.645229 -4.58681,-2.490372 -1.47401,-0.838062 -2.91262,-1.690929 -4.27528,-2.536265 -1.32918,-0.822937 -2.5837,-1.619225 -3.73137,-2.368525 -0.37398,-0.245175 -0.68551,-0.574542 -0.90694,-0.962484 L 110.755,68.91119 c -0.20212,-0.353248 -0.32634,-0.745503 -0.36368,-1.150309 l -2.87078,-31.448714 -0.0109,-0.159631 c -0.0219,-0.646183 0.0174,-1.28284 0.11779,-1.89182 0.19889,-1.194593 0.59797,-2.198787 1.18693,-2.987802 0.54713,-0.733916 1.23907,-1.34341 2.05396,-1.811361 0.083,-0.04699 0.168,-0.09076 0.25361,-0.129442 0.48276,-0.307547 0.94298,-0.583876 1.37038,-0.828987 0.62115,-0.354793 1.24036,-0.649466 1.84413,-0.876039 0.75309,-0.2818 1.54481,-0.424116 2.3552,-0.424116 l 0.1622,0.0012 c 0.83678,0.01937 1.71024,0.20546 2.66223,0.566496 0.63531,0.241893 1.3279,0.597136 2.10868,1.081436 0.11843,0.05252 0.23301,0.113157 0.34501,0.182803 1.76237,1.095467 3.58912,2.22241 5.48087,3.383017 1.89755,1.163118 3.74618,2.299909 5.54654,3.412241 1.14058,0.689181 1.922,1.34444 2.43501,2.04289 0.50979,0.696454 1.05627,1.901346 0.76275,3.683806 -0.17829,1.075642 -0.56128,2.132425 -1.13865,3.145695 -0.49949,0.869474 -1.03761,1.651666 -1.60146,2.327523 l -0.0618,0.07068 c -0.73507,0.972011 -1.57764,1.473368 -2.29405,1.730065 0.77949,0.418387 1.48303,0.858145 2.08743,1.302215 0.77113,0.569715 1.39871,1.211393 1.86537,1.91113 0.68809,1.034898 0.94427,2.211146 0.74602,3.407735 -0.0605,0.37436 -0.17701,0.769897 -0.35016,1.196073 -0.0393,0.148303 -0.0908,0.296154 -0.15577,0.4395 -0.24588,0.545578 -0.49112,1.086714 -0.73314,1.619225 -0.35917,0.784508 -0.85995,1.545073 -1.49461,2.273003 -0.0547,0.06282 -0.11329,0.123199 -0.17186,0.181001 -1.06013,1.219439 -2.22969,1.609183 -3.0581,1.715324 -0.21176,0.0271 -0.43447,0.04094 -0.65976,0.04094 -0.67457,0 -1.39162,-0.121912 -2.17883,-0.372107 0.0393,0.233846 0.0779,0.463122 0.11521,0.688923 1.30022,0.688923 2.55024,1.336394 3.72816,1.934045 1.54095,0.781483 3.06775,1.53574 4.53918,2.246097 l 0.056,0.02761 c 1.41544,0.720399 2.34683,1.468412 2.93193,2.348442 0.70289,1.061031 0.93526,2.357195 0.6868,3.854958"
         style="fill:#231f20;fill-opacity:1;fill-rule:nonzero;stroke:none"
         id="path4148"
         inkscape:connector-curvature="0" /><path
         d="m 113.30266,68.116704 c 1.11613,0.729153 2.34104,1.507354 3.67344,2.333766 1.33369,0.826734 2.72724,1.653982 4.18452,2.482454 1.45599,0.827185 2.95381,1.640466 4.49284,2.43862 1.53773,0.798799 3.07354,1.520357 4.60677,2.164673 l 0.2182,0.08368 c 0.93075,0.354664 1.68192,0.44156 2.25286,0.26455 0.57029,-0.178298 1.04919,-0.588318 1.43346,-1.23006 l -0.006,0.04184 c 0.39972,-0.546479 0.69388,-1.011854 0.88055,-1.396127 0.18731,-0.384917 0.36432,-0.804527 0.53296,-1.255871 l -0.0508,0.02645 c 0.17701,-0.326922 0.30059,-0.691498 0.3656,-1.091284 0.1281,-0.771893 0.0431,-1.38158 -0.2536,-1.82919 -0.29738,-0.448769 -0.91595,-0.911441 -1.85829,-1.391686 -1.4901,-0.718597 -3.01947,-1.475878 -4.58939,-2.271201 -1.5712,-0.795773 -3.23639,-1.664989 -4.99748,-2.609902 -0.19374,-1.075384 -0.38942,-2.238244 -0.5851,-3.481113 -0.19632,-1.245057 -0.40873,-2.488441 -0.63401,-3.728734 1.22684,0.619278 2.47749,1.187512 3.7539,1.703416 l 0.3051,0.116441 c 0.84386,0.321836 1.53387,0.447546 2.07263,0.378415 0.53682,-0.06913 1.02473,-0.399785 1.46242,-0.9919 l -0.006,0.04274 c 0.4583,-0.525495 0.80845,-1.05305 1.05112,-1.583565 0.24138,-0.529743 0.48468,-1.067854 0.72992,-1.612208 l -0.0502,0.02645 c 0.18666,-0.385754 0.30252,-0.706818 0.34436,-0.962549 0.0811,-0.485716 -0.0212,-0.94208 -0.30639,-1.370767 -0.28579,-0.427463 -0.68293,-0.829759 -1.19272,-1.206436 -0.50979,-0.375841 -1.11291,-0.750523 -1.81001,-1.121858 -0.69646,-0.372172 -1.41415,-0.758827 -2.15051,-1.160672 l 0.0431,0.01609 c -1.06914,-0.650689 -2.10996,-1.267972 -3.12761,-1.851783 -1.017,-0.585614 -2.01598,-1.185518 -2.99565,-1.801062 -0.13903,-0.661503 -0.2697,-1.371539 -0.39135,-2.130366 -0.12101,-0.762109 -0.16929,-1.410288 -0.14226,-1.946596 1.07301,0.620501 2.18463,1.241066 3.33552,1.861567 1.14896,0.62108 2.3803,1.179789 3.68953,1.679344 0.78593,0.299243 1.44376,0.388714 1.97351,0.272853 0.53038,-0.118436 0.98288,-0.469689 1.35815,-1.05556 l -0.007,0.04126 c 0.4628,-0.5524 0.89985,-1.19028 1.31502,-1.913704 0.41324,-0.724133 0.68165,-1.457277 0.80588,-2.200783 0.10749,-0.65777 0.0238,-1.175219 -0.25554,-1.553892 -0.27614,-0.379638 -0.82326,-0.816628 -1.63944,-1.309231 -1.79649,-1.109564 -3.64254,-2.245004 -5.53816,-3.408185 -1.89562,-1.162346 -3.72751,-2.292056 -5.49504,-3.390807 l 0.0367,0.0598 c -0.78206,-0.509661 -1.44955,-0.872692 -2.00247,-1.081886 -0.63981,-0.243888 -1.21396,-0.3714 -1.72311,-0.382986 -0.50914,-0.01152 -0.99447,0.07068 -1.45599,0.24318 -0.46087,0.173727 -0.93976,0.400493 -1.43474,0.683645 -0.49628,0.282573 -1.03761,0.614773 -1.62785,0.998917 l 0.007,-0.043 c -0.47761,0.274849 -0.87604,0.623591 -1.19402,1.049767 -0.31797,0.425404 -0.53875,1.009988 -0.66169,1.754009 -0.0702,0.428687 -0.0985,0.873465 -0.0824,1.33485 l 2.87207,31.450259 0.46795,0.81592"
         style="fill:#ffffff;fill-opacity:1;fill-rule:nonzero;stroke:none"
         id="path4150"
         inkscape:connector-curvature="0" /><path
         d="m 111.98763,63.099786 c -0.18602,1.441506 -0.58317,2.733873 -1.18371,3.840154 -0.75053,1.385443 -2.04495,2.459025 -3.84531,3.193263 -0.67585,0.287851 -1.44697,0.503353 -2.29534,0.640391 -0.7679,0.123971 -1.57313,0.194325 -2.39317,0.210674 -0.11007,0.0013 -0.21692,0.003 -0.32377,0.003 -0.71576,0 -1.45663,-0.04396 -2.20265,-0.129957 -0.750523,-0.08876 -1.480448,-0.206169 -2.176903,-0.350802 -0.303813,-0.04525 -0.615995,-0.123199 -0.930751,-0.230049 L 96.232443,70.136937 C 94.22547,69.445503 92.370404,68.2316 90.718095,66.528891 c -1.507483,-1.557174 -2.87207,-3.40825 -4.057073,-5.505208 -1.145738,-2.027313 -2.155017,-4.261825 -3.001448,-6.641614 -0.830982,-2.340395 -1.509413,-4.73177 -2.017272,-7.10937 -0.510432,-2.385582 -0.84643,-4.729196 -1.000268,-6.963192 -0.156412,-2.282015 -0.119079,-4.358376 0.113287,-6.172247 0.15255,-1.192018 0.386847,-2.325012 0.697098,-3.369694 0.339859,-1.14252 0.791718,-2.169178 1.342702,-3.050946 0.05729,-0.09204 0.119723,-0.179006 0.186022,-0.262748 0.296733,-0.471168 0.649466,-0.920517 1.055624,-1.336844 0.523306,-0.540622 1.111623,-1.015073 1.746929,-1.407842 0.641742,-0.399014 1.328541,-0.708492 2.03272,-0.916462 0.634018,-0.186022 1.265461,-0.280578 1.876951,-0.280578 l 0.01609,0 0.0663,-0.0041 c 0.696454,-0.02562 1.471437,-0.03843 2.302419,-0.03843 l 0.525237,0.0012 c 1.132222,0.0071 2.375798,0.158923 3.70434,0.448576 0.301239,0.04576 0.610202,0.123714 0.919809,0.231787 l 0.07853,0.0269 0.48018,0.164974 c 3.02977,1.043458 5.5755,2.806994 7.55737,5.23892 1.87695,2.301132 3.28595,4.974886 4.18838,7.946081 l 0.01,0.03341 c 0.17251,0.592887 0.31798,1.154878 0.4332,1.670332 0.17765,0.789723 0.22206,1.547326 0.13195,2.249059 -0.16349,1.267971 -0.74216,2.332542 -1.67355,3.07856 -0.84708,0.674634 -1.92909,1.013785 -3.22094,1.013785 -0.0792,0 -0.16156,-0.0012 -0.24331,-0.0038 -0.55549,-0.0148 -1.10647,-0.06636 -1.62721,-0.153838 -0.54326,-0.08876 -1.08072,-0.224513 -1.60081,-0.403068 -2.294697,-0.79101 -4.205119,-2.364726 -5.682993,-4.680727 0.0071,0.203465 0.01609,0.412144 0.02897,0.626359 0.08625,1.525441 0.28386,3.096132 0.592823,4.669913 0.247814,1.204827 0.598616,2.572633 1.039532,4.03699 0.289653,0.959266 0.59411,1.886799 0.910154,2.773587 0.489192,-0.824416 1.13029,-1.506839 1.904628,-2.02757 0.80009,-0.539334 1.74693,-0.89535 2.81092,-1.054981 0.42676,-0.06565 0.88827,-0.09835 1.37103,-0.09835 0.52459,0 1.09295,0.03926 1.69157,0.115153 0.40809,0.03218 0.80137,0.11142 1.17277,0.240155 l 0.18731,0.06437 0.24975,0.08625 c 1.3678,0.470397 2.29984,1.16183 2.85018,2.111763 0.29738,0.514424 -0.18602,1.089739 -0.0238,1.752787 0.0708,0.164651 0.12745,0.335868 0.16672,0.511656 0.14933,0.663755 0.26455,1.401212 0.33986,2.192029 0.0714,0.7661 0.11714,1.529174 0.13839,2.275449 0.0219,0.779939 0.0135,1.566443 -0.0245,2.333315 -0.0373,0.771893 0.60762,1.499566 0.5233,2.159073"
         style="fill:#231f20;fill-opacity:1;fill-rule:nonzero;stroke:none"
         id="path4152"
         inkscape:connector-curvature="0" /><path
         d="m 38.31917,46.683094 c -0.286628,1.325323 -0.98437,2.517857 -2.072564,3.547734 -0.616574,0.582589 -1.348946,1.10081 -2.175422,1.541082 -0.784509,0.417101 -1.614719,0.749751 -2.471641,0.993188 -0.830209,0.234297 -1.667499,0.391482 -2.488698,0.46338 -0.304715,0.02588 -0.603958,0.0392 -0.890586,0.0392 -0.583812,0 -1.145996,-0.05458 -1.674065,-0.161433 -1.051955,-0.211704 -2.047138,-0.578791 -2.956069,-1.090447 -0.85615,-0.482755 -1.58408,-1.031615 -2.166669,-1.634351 -0.81238,-0.706495 -1.640079,-1.544043 -2.466813,-2.493461 -0.875975,-1.005997 -1.706442,-2.078356 -2.468294,-3.18541 -0.766872,-1.116901 -1.460365,-2.272231 -2.061814,-3.439918 -0.629061,-1.217186 -1.111816,-2.388092 -1.435648,-3.475835 l -0.04525,-0.170445 c -0.58761,-1.727104 -0.895672,-3.335515 -0.914467,-4.787834 -0.02143,-1.560135 0.2137,-2.971711 0.698965,-4.195913 0.416134,-1.055817 0.974328,-2.008968 1.659196,-2.843748 -0.106077,-0.01686 -0.211704,-0.03624 -0.318554,-0.05735 -1.264238,-0.254959 -2.462822,-0.782192 -3.561572,-1.566186 l -0.07621,-0.05658 -0.06662,-0.05079 -0.09526,-0.07743 C 9.0149174,22.928271 9.0018509,21.54064 8.8942287,19.964155 l -0.00631,-0.166711 0,-0.07518 c -0.01931,-1.439961 -0.055807,-2.877412 1.3464353,-4.381007 1.824943,-2.188489 3.789433,-3.687546 5.839597,-4.457437 1.321268,-0.496334 2.709993,-0.747266 4.127297,-0.747266 0.833041,0 1.688676,0.0875 2.543539,0.259481 l 0.427914,0.0875 0.04828,0.0091 c 1.739462,0.382184 3.290779,0.994929 4.609086,1.82416 1.246345,0.782719 2.335054,1.660728 3.235681,2.610648 0.902173,0.947404 1.651472,1.951637 2.224213,2.982286 0.452309,0.811608 0.83272,1.587813 1.131964,2.311431 0.03849,0.07267 0.07293,0.147337 0.105626,0.225285 0.47516,1.143743 0.723618,2.270686 0.739195,3.350126 0.02214,1.741201 -0.479472,3.261621 -1.491005,4.520517 -0.245175,0.303235 -0.507922,0.600676 -0.787727,0.888334 0.602928,0.266545 1.137692,0.663562 1.577192,1.17599 0.388006,0.451795 0.747562,0.997694 1.09579,1.66647 0.03115,0.06063 0.06083,0.120947 0.08773,0.184091 0.310058,0.711774 0.608464,1.519133 0.914724,2.467328 0.28489,0.882283 0.556906,1.796492 0.808904,2.716237 0.255152,0.930815 0.47973,1.865879 0.667811,2.777321 0.180744,0.883312 0.326085,1.667757 0.431197,2.334602 0.02137,0.132726 0.03193,0.266481 0.03315,0.401009 l 0.01262,0.933326 c 0.01178,0.903138 -0.0885,1.852556 -0.297956,2.821348"
         style="fill:#231f20;fill-opacity:1;fill-rule:nonzero;stroke:none"
         id="path4154"
         inkscape:connector-curvature="0" /><path
         d="m 62.305265,49.818233 c -0.251933,0.945685 -0.585099,1.835241 -0.98939,2.646849 -0.391482,0.785281 -0.83729,1.516687 -1.324293,2.174457 -0.452567,0.607434 -0.892582,1.147025 -1.312514,1.604355 l -0.05027,0.05336 c -1.00825,1.040433 -2.22344,1.689127 -3.614354,1.927994 -0.486552,0.08348 -0.990677,0.125709 -1.503105,0.125709 -0.689439,0 -1.414794,-0.07672 -2.156563,-0.2258 -1.169876,-0.235585 -2.399936,-0.636657 -3.657866,-1.191053 -1.163375,-0.514166 -2.34561,-1.119412 -3.516322,-1.79823 -1.162603,-0.675857 -2.289803,-1.39175 -3.350834,-2.1294 -1.043974,-0.724647 -2.032398,-1.441763 -2.935536,-2.129206 l -0.0578,-0.04576 C 37.007943,50.16395 36.466099,49.127057 35.90488,47.13167 35.532773,45.80963 35.146826,44.183068 34.75882,42.297556 34.378409,40.455556 33.9877,38.435517 33.595188,36.296848 33.206216,34.166161 32.821557,32.108466 32.445652,30.123378 32.077278,28.18251 31.716949,26.411959 31.372777,24.85929 30.965461,23.029392 30.68733,22.251706 30.5566,21.951754 c -0.04654,-0.108652 -0.08722,-0.221295 -0.119917,-0.33471 -0.267317,-0.925023 -0.396502,-1.660677 -0.404098,-2.315936 -0.01628,-1.255678 0.28592,-2.32881 0.898182,-3.186189 0.536308,-0.752293 1.242547,-1.342664 2.096958,-1.748223 0.634855,-0.30449 1.365296,-0.531539 2.162807,-0.673095 l 0.320871,-0.05682 1.304661,-0.230313 c 0.107622,-0.01936 0.214472,-0.03218 0.323832,-0.03923 0.124486,-0.0073 0.248973,-0.01107 0.374682,-0.01107 0.414848,0 0.833493,0.0425 1.24583,0.126224 1.453285,0.291662 2.299393,1.064572 2.751188,1.660729 0.40384,0.53103 0.748077,1.184256 1.05807,1.999938 0.04699,0.128734 0.08722,0.26043 0.116891,0.394442 0.326857,1.485534 0.690211,3.017025 1.078667,4.551478 0.298729,1.176506 0.600161,2.374317 0.905648,3.590988 1.081951,0.615288 2.168149,1.280846 3.241281,1.987599 1.439189,0.944397 2.846709,1.95696 4.181881,3.008722 1.350941,1.065021 2.624191,2.187716 3.786085,3.338539 1.181012,1.170134 2.226981,2.353398 3.110744,3.513812 l 0.03598,0.0495 c 0.90642,1.247632 1.713522,2.547015 2.395429,3.864034 0.819654,1.582793 1.24583,3.298375 1.268487,5.102398 0.01628,1.156874 -0.113672,2.259357 -0.385496,3.273657"
         style="fill:#231f20;fill-opacity:1;fill-rule:nonzero;stroke:none"
         id="path4156"
         inkscape:connector-curvature="0" /><path
         d="m 84.361178,36.506557 c -0.05922,2.849477 -0.09655,5.669602 -0.110068,8.381783 -0.01352,2.773073 -0.0077,5.393531 0.01931,7.786708 0.02639,2.33383 0.08561,4.382256 0.178941,6.092496 0.03476,0.286177 0.04377,0.577825 0.03025,0.867478 l -0.009,0.155383 -0.01609,0.290425 c -0.07531,1.315475 -0.462158,2.399936 -1.150244,3.237226 -0.796224,0.959202 -1.985088,1.523703 -3.540847,1.682562 -0.07531,0.0083 -0.151263,0.0121 -0.226573,0.01384 l -0.596685,0.01333 c -0.834844,0.07042 -1.781043,0.106849 -2.814783,0.106849 -0.160274,0 -0.323123,-0.0012 -0.489191,-0.002 -1.443115,-0.01686 -3.107654,-0.287143 -5.089524,-0.827699 C 68.9864,63.878759 67.726732,63.139501 66.797267,62.104861 66.058974,61.28392 65.427595,60.334759 64.92347,59.28377 63.876278,57.063612 62.735496,54.481131 61.524554,51.589879 60.320177,48.715686 59.103249,45.720095 57.907947,42.686527 56.712389,39.648197 55.561308,36.637802 54.486438,33.734192 53.404745,30.806251 52.47747,28.168478 51.73319,25.896248 l -0.02214,-0.07016 c -0.197093,-0.660537 -0.324347,-1.237783 -0.388972,-1.766303 -0.0616,-0.522534 -0.08046,-1.015588 -0.0578,-1.471437 0.05832,-1.016296 0.394764,-1.932243 0.97304,-2.664164 0.433772,-0.550147 0.973556,-1.01887 1.604935,-1.390977 0.517191,-0.304458 1.091734,-0.556134 1.707729,-0.749236 0.475224,-0.148624 0.947423,-0.281865 1.404753,-0.395022 l 0.46544,-0.115411 c 0.06913,-0.0186 0.139548,-0.0327 0.209902,-0.04499 0.366379,-0.06186 0.729668,-0.09333 1.082465,-0.09333 0.507923,0 1.003744,0.06488 1.473883,0.193617 0.805106,0.219042 1.962495,0.802081 2.881467,2.329067 0.426176,0.710551 0.839028,1.56213 1.227485,2.53015 0.352797,0.877263 0.702248,1.844832 1.03921,2.872649 0.181001,0.552916 0.370885,1.091027 0.569265,1.607188 0.957142,0.50213 2.030789,1.020351 3.206136,1.545588 0.446066,0.200118 0.897924,0.401523 1.353645,0.603186 0.04699,-0.512428 0.09719,-0.997693 0.149332,-1.456053 0.173792,-1.654948 0.592823,-2.825661 1.315025,-3.652845 0.81489,-0.941115 2.02757,-1.475943 3.597489,-1.583565 l 0.167355,-0.0075 c 0.330848,-0.03798 0.659121,-0.05735 0.981602,-0.05735 0.481467,0 0.961004,0.043 1.423805,0.127511 0.685512,0.126225 1.425092,0.296669 2.199431,0.508373 1.59631,0.434029 2.704715,1.11613 3.385721,2.082412 0.661696,0.940342 0.944912,2.125345 0.866384,3.623944 -0.06501,2.559116 -0.130022,5.262029 -0.188596,8.105005"
         style="fill:#231f20;fill-opacity:1;fill-rule:nonzero;stroke:none"
         id="path4158"
         inkscape:connector-curvature="0" /><path
         d="m 33.028948,72.833605 c -0.394764,0.606469 -0.990162,1.098751 -1.76508,1.460817 -0.06462,0.03019 -0.131503,0.05787 -0.198123,0.0822 -0.227538,0.08625 -0.471941,0.175529 -0.733916,0.268862 -0.350223,0.124229 -0.701539,0.225929 -1.047964,0.305101 -0.353313,0.08046 -0.714864,0.139677 -1.068627,0.173792 -0.162141,0.01609 -0.316043,0.02253 -0.467178,0.02253 -0.40281,0 -0.79957,-0.05085 -1.177214,-0.153195 -0.802081,-0.213699 -1.524153,-0.651526 -2.087367,-1.261985 -0.355308,-0.383951 -0.631122,-0.836003 -0.829759,-1.351972 -0.56978,0.289138 -1.17921,0.486553 -1.815352,0.588833 -0.317588,0.05104 -0.628096,0.07621 -0.929335,0.07621 -0.451087,0 -0.893097,-0.05658 -1.311227,-0.169737 -0.841538,-0.226251 -1.568953,-0.696454 -2.107515,-1.36021 C 17.106855,71.043357 16.80008,70.453752 16.556193,69.715781 16.165998,68.511919 15.774258,67.22837 15.38902,65.887728 15.002366,64.542515 14.644548,63.188549 14.327217,61.862711 14.002419,60.496965 13.735102,59.160571 13.534726,57.889573 13.321477,56.53934 13.21392,55.291 13.21392,54.179119 c 0,-1.403014 0.177975,-2.575207 0.543839,-3.588478 l 0.02465,-0.06231 c 0.923735,-2.379081 2.532918,-3.336802 3.71998,-3.721783 0.675085,-0.21872 1.414022,-0.330848 2.192222,-0.330848 0.833042,0 1.738948,0.128734 2.691134,0.383693 0.717052,0.192587 1.397479,0.464604 2.024802,0.80987 0.607692,0.335161 1.206115,0.760822 1.778148,1.263917 l 0.123199,0.114702 c 0.930301,0.922963 1.771839,2.142724 2.501764,3.623172 0.655002,1.332597 1.262694,2.888934 1.810331,4.627624 0.527233,1.680824 1.032903,3.570391 1.501046,5.613281 0.450571,1.970477 0.90597,4.117256 1.353967,6.382664 0.06366,0.251483 0.106914,0.487775 0.131309,0.721622 0.0251,0.221295 0.0372,0.436282 0.0372,0.64245 0,0.814633 -0.208743,1.546811 -0.61857,2.174907"
         style="fill:#231f20;fill-opacity:1;fill-rule:nonzero;stroke:none"
         id="path4160"
         inkscape:connector-curvature="0" /><path
         d="m 45.109922,65.567629 c 0.701218,0.880803 1.304661,1.848823 1.795719,2.878957 0.580336,1.218924 0.873722,2.476082 0.873722,3.735815 0,0.671287 -0.07415,1.319981 -0.222517,1.92645 -0.148303,0.605503 -0.353248,1.164855 -0.609688,1.673357 -0.238094,0.4731 -0.515453,0.919165 -0.823451,1.323392 -0.277873,0.360457 -0.562506,0.689374 -0.853639,0.987395 l -0.05986,0.06115 c -0.606469,0.585742 -1.688097,1.297001 -3.405675,1.360081 -0.104854,0.0045 -0.212476,0.0064 -0.320291,0.0064 -0.848877,0 -1.746994,-0.12616 -2.671502,-0.373974 C 38.089121,78.952942 37.323472,78.681956 36.541023,78.343384 35.794748,78.018972 35.055039,77.650791 34.338952,77.249139 33.637928,76.855855 32.942696,76.424594 32.273405,75.96823 31.586219,75.500279 30.95838,75.025892 30.405272,74.558585 29.85963,74.097072 29.507605,73.446318 29.422898,72.73551 29.280067,71.552503 29.08645,70.278995 28.848098,68.951419 28.603695,67.597453 28.342943,66.208277 28.072407,64.82084 27.802129,63.436749 27.536356,62.083491 27.272386,60.762738 27.000048,59.39564 26.776564,58.113314 26.607343,56.949682 c -0.02768,-0.182803 -0.05458,-0.365092 -0.07673,-0.533541 -0.03566,-0.280062 -0.05452,-0.559416 -0.05452,-0.834973 0,-0.852159 0.167677,-1.570498 0.514681,-2.198852 0.148817,-0.272274 0.32763,-0.54635 0.540557,-0.837225 l 0.04403,-0.06263 c 0.556134,-0.79809 1.225232,-1.417819 1.986311,-1.844059 0.474452,-0.265709 0.96802,-0.483463 1.466352,-0.649402 0.409376,-0.198895 0.819203,-0.339216 1.221499,-0.416392 0.237579,-0.04654 0.501614,-0.07216 0.766099,-0.07216 0.381699,0 0.773438,0.0533 1.16492,0.157635 0.621531,0.165939 1.286059,0.483528 2.032849,0.969308 l 0.07718,0.05278 c 0.518222,0.316816 1.061804,0.674119 1.619997,1.060774 0.629126,0.438534 1.268487,0.919294 1.899608,1.430177 0.646956,0.524014 1.26971,1.079697 1.852299,1.654433 0.629834,0.619021 1.187512,1.261471 1.656943,1.908684 l 0.08754,0.12822 c 0.598423,0.777429 1.072359,1.553827 1.412283,2.311946 0.440273,0.983082 0.665043,2.061749 0.665043,3.208324 0,1.001942 -0.206683,1.97878 -0.610717,2.906571 0.06083,0.07042 0.120689,0.142059 0.180293,0.212476 l 0.05606,0.06585"
         style="fill:#231f20;fill-opacity:1;fill-rule:nonzero;stroke:none"
         id="path4162"
         inkscape:connector-curvature="0" /><path
         d="m 60.875345,79.792292 -0.01886,0.146114 c -0.05278,0.332135 -0.120174,0.659765 -0.196578,0.975165 -0.09307,0.377836 -0.236357,0.793649 -0.43905,1.277691 l -0.04371,0.09977 c -0.450829,1.11098 -1.162409,1.716033 -1.702966,2.032077 -0.577826,0.338572 -1.227742,0.509145 -1.93353,0.509145 -0.412402,0 -0.846109,-0.0605 -1.291144,-0.180228 l -0.108588,-0.02897 -0.108909,-0.03218 c -0.83272,-0.258757 -1.687132,-0.570295 -2.539484,-0.924959 -0.817143,-0.34179 -1.616714,-0.695167 -2.377793,-1.053049 -0.767645,-0.35917 -1.518683,-0.730569 -2.231487,-1.103256 -0.679654,-0.35402 -1.332596,-0.704822 -1.93855,-1.041463 -0.395537,-0.219493 -0.734496,-0.532318 -0.98437,-0.90951 l -0.279096,-0.419675 c -0.196128,-0.29609 -0.33471,-0.626294 -0.408604,-0.973234 l -3.732082,-17.429898 -0.0251,-0.129507 c -0.06791,-0.411114 -0.102601,-0.822228 -0.102601,-1.219439 0,-0.820941 0.13073,-1.525763 0.400557,-2.15431 0.268541,-0.619793 0.639876,-1.156359 1.107569,-1.608925 l 0.120689,-0.10891 c 0.199152,-0.210932 0.385174,-0.39824 0.563986,-0.569457 0.310508,-0.30124 0.646184,-0.576088 0.984305,-0.804592 0.55195,-0.370884 1.16138,-0.608271 1.813871,-0.70759 0.206169,-0.03141 0.424438,-0.0475 0.643158,-0.0475 0.429974,0 0.880803,0.06186 1.340192,0.186086 0.397275,0.104854 0.824675,0.276071 1.296616,0.516161 0.0905,0.03598 0.179778,0.07673 0.26854,0.122234 0.895092,0.469946 1.822432,0.950126 2.782149,1.443695 0.966025,0.498396 1.909649,0.986171 2.827399,1.463133 0.757281,0.382921 1.315732,0.802854 1.733605,1.307429 0.588896,0.713576 0.886338,1.606222 0.886338,2.656439 0,0.706561 -0.11142,1.425157 -0.330655,2.134163 -0.179006,0.585872 -0.390967,1.125205 -0.626552,1.604163 l -0.01635,0.0307 c -0.0699,0.155383 -0.145341,0.301175 -0.224063,0.435702 0.492797,0.331878 0.915497,0.72793 1.254648,1.177214 0.536824,0.70656 0.820941,1.555115 0.820941,2.452266 0,0.256955 -0.02485,0.528005 -0.07718,0.819654 -0.01004,0.113158 -0.02768,0.226315 -0.05227,0.339473 l -0.216789,0.974779 c -0.127447,0.558193 -0.331878,1.111366 -0.611747,1.653982 l -0.08393,0.1521 c -0.235842,0.450572 -0.512428,0.802082 -0.797833,1.076608 0.57126,0.228311 1.136985,0.447096 1.685394,0.655324 l 0.06411,0.02575 c 0.960489,0.390709 1.665762,0.894706 2.15579,1.541597 0.55092,0.726707 0.830467,1.640723 0.830467,2.713726 0,0.314756 -0.02639,0.624363 -0.08046,0.924315"
         style="fill:#231f20;fill-opacity:1;fill-rule:nonzero;stroke:none"
         id="path4164"
         inkscape:connector-curvature="0" /><path
         d="m 75.769428,82.433283 c -0.185378,0.729926 -0.433836,1.401277 -0.741511,2.001824 -0.292872,0.573513 -0.627582,1.101325 -0.996406,1.571206 -0.305102,0.388779 -0.608915,0.747948 -0.904361,1.070429 l -0.03926,0.04055 c -0.859948,0.899855 -1.956123,1.452127 -3.165585,1.598884 -0.281285,0.03283 -0.562571,0.04956 -0.841925,0.04956 -0.657834,0 -1.33176,-0.0914 -2.003754,-0.270986 -0.710616,-0.190528 -1.449617,-0.477606 -2.196664,-0.85158 -0.647921,-0.324411 -1.317985,-0.70096 -1.987598,-1.117417 -0.65925,-0.410663 -1.319788,-0.861234 -1.962946,-1.33884 -0.614257,-0.456364 -1.209398,-0.913372 -1.771324,-1.361369 -0.741769,-0.582524 -1.291917,-1.467575 -1.82417,-2.946092 -0.354535,-0.984176 -0.70405,-2.156305 -1.039211,-3.483559 -0.321836,-1.277048 -0.642128,-2.688623 -0.95167,-4.195205 -0.301433,-1.463326 -0.58555,-2.903545 -0.845787,-4.281456 -0.257727,-1.367806 -0.489835,-2.616661 -0.696004,-3.748882 l -0.153387,-0.841023 -0.310508,-1.703481 -0.01455,-0.0943 c -0.06462,-0.440015 -0.0961,-0.836517 -0.0961,-1.213195 0,-1.016295 0.217498,-1.85056 0.665044,-2.55255 0.471941,-0.744215 1.162409,-1.306206 1.992619,-1.614204 0.515453,-0.19484 1.096304,-0.309993 1.71732,-0.336898 0.28991,-0.01384 0.60222,-0.03148 0.928563,-0.05285 0.119144,-0.01004 0.238094,-0.01455 0.356273,-0.01455 0.384723,0 0.765134,0.04898 1.132221,0.146564 0.916977,0.246398 1.684622,0.759857 2.221445,1.490233 0.382664,0.520023 0.655452,1.12971 0.834007,1.865686 l 0.01178,0.04396 c 0.05986,0.267318 0.122233,0.537596 0.184283,0.8109 l 0.01937,-0.01435 c 0.427721,-0.358269 0.812895,-0.658735 1.170713,-0.911441 0.08799,-0.0616 0.177718,-0.118179 0.271565,-0.169222 0.688151,-0.377643 1.394003,-0.603894 2.098182,-0.673089 0.187309,-0.01757 0.37333,-0.02716 0.55549,-0.02716 0.462801,0 0.918521,0.05909 1.352357,0.174757 0.395859,0.106399 0.76919,0.251483 1.114842,0.433257 0.08496,0.04448 0.167355,0.08973 0.250389,0.134527 l 6.44e-4,0 c 0.319905,0.133241 0.650753,0.32306 1.041463,0.598359 0.32248,0.226315 0.644317,0.491573 0.951993,0.783221 0.390709,0.367152 0.735074,0.792555 1.019578,1.258446 0.42933,0.702762 0.646892,1.454573 0.646892,2.233996 0,1.214419 -0.533606,2.327072 -1.504265,3.134174 -0.056,0.04699 -0.112643,0.09172 -0.171217,0.131953 -0.195033,0.179778 -0.40487,0.381441 -0.624363,0.602221 -0.32248,0.323059 -0.652684,0.669291 -0.981601,1.030907 -0.056,0.05902 -0.109425,0.118629 -0.164781,0.17849 0.806523,0.766872 1.54546,1.535483 2.211018,2.300617 1.255806,1.440734 2.211661,2.93206 2.844392,4.438255 0.04827,0.09655 0.09269,0.195677 0.130665,0.299308 0.164781,0.447353 0.29609,0.899212 0.39071,1.345277 0.105562,0.507859 0.158987,1.0479 0.158987,1.609827 0,0.870246 -0.09526,1.689642 -0.28386,2.436303"
         style="fill:#231f20;fill-opacity:1;fill-rule:nonzero;stroke:none"
         id="path4166"
         inkscape:connector-curvature="0" /><path
         d="m 16.108647,54.179119 c 0,0.968793 0.09507,2.059047 0.286112,3.269152 0.190849,1.210685 0.441818,2.46205 0.749815,3.7577 0.309736,1.293654 0.652942,2.59484 1.027882,3.899758 0.375905,1.304983 0.754063,2.545792 1.136469,3.723779 0.132018,0.398498 0.279097,0.700252 0.443556,0.903137 0.165424,0.202436 0.378351,0.338959 0.642643,0.4106 0.316044,0.08426 0.668841,0.09552 1.055753,0.0327 0.388457,-0.06289 0.755093,-0.188596 1.097012,-0.377192 0.341984,-0.188532 0.632859,-0.431969 0.869989,-0.731664 0.236871,-0.300466 0.354535,-0.647406 0.354535,-1.042171 0,-0.286628 -0.05909,-0.613485 -0.17656,-0.978126 l 0.01937,0.02819 c -0.3042,-0.944655 -0.622818,-1.996867 -0.957979,-3.153484 -0.336898,-1.159126 -0.652427,-2.319476 -0.948646,-3.481113 -0.296411,-1.163632 -0.540299,-2.256654 -0.73089,-3.286274 -0.191107,-1.029104 -0.286178,-1.87547 -0.286178,-2.542251 0,-0.348227 0.02594,-0.620566 0.07872,-0.819461 0.0533,-0.19883 0.145341,-0.279289 0.276586,-0.243887 0.28991,0.07724 0.595398,0.435766 0.918264,1.076157 0.323317,0.638395 0.645154,1.456053 0.967505,2.452009 0.322609,0.99441 0.645412,2.107772 0.968021,3.337316 0.323574,1.230768 0.629834,2.475825 0.918199,3.733756 0.290426,1.259732 0.557228,2.475374 0.800344,3.645829 0.243115,1.170906 0.452116,2.196277 0.622303,3.076307 l -0.01886,-0.05156 c 0.0654,0.441302 0.200376,0.77318 0.404034,0.994411 0.204431,0.220522 0.451344,0.370884 0.741254,0.448833 0.197865,0.05207 0.412337,0.06842 0.641935,0.04654 0.230049,-0.02214 0.467371,-0.05986 0.710294,-0.116441 0.244402,-0.05458 0.487775,-0.127447 0.732178,-0.212476 0.243115,-0.0867 0.470203,-0.170188 0.680877,-0.249424 0.289653,-0.134463 0.487004,-0.282315 0.59263,-0.443233 0.105627,-0.161433 0.158408,-0.370112 0.158408,-0.627839 0,-0.105627 -0.0075,-0.216982 -0.02015,-0.335161 -0.01255,-0.11747 -0.03894,-0.2482 -0.07917,-0.396052 -0.447546,-2.270943 -0.898118,-4.399313 -1.353195,-6.384401 -0.453339,-1.985088 -0.935643,-3.783576 -1.442278,-5.395784 -0.50715,-1.614203 -1.055753,-3.021273 -1.647868,-4.22565 -0.593402,-1.204119 -1.246151,-2.15933 -1.95696,-2.864861 -0.421155,-0.370112 -0.845271,-0.673282 -1.274215,-0.909381 -0.427206,-0.234362 -0.891101,-0.420447 -1.392201,-0.554975 -1.303695,-0.348935 -2.396202,-0.380411 -3.279515,-0.09449 -0.881768,0.285597 -1.533744,0.971753 -1.9549,2.054476 -0.249938,0.690661 -0.375132,1.566185 -0.375132,2.626701"
         style="fill:#ffffff;fill-opacity:1;fill-rule:nonzero;stroke:none"
         id="path4168"
         inkscape:connector-curvature="0" /><path
         d="m 36.257871,66.58798 c 0.650238,0.470654 1.240358,0.958429 1.768363,1.467124 0.528778,0.507858 0.979349,0.990613 1.350684,1.448716 0.37288,0.457136 0.656997,0.868701 0.853124,1.23405 0.1969,0.364576 0.296219,0.647471 0.296219,0.850357 0,0.124486 -0.231594,0.124486 -0.691434,0.002 -0.325119,-0.08799 -0.711066,-0.253929 -1.158612,-0.497817 C 38.22912,70.84723 37.740829,70.522883 37.213597,70.115567 37.077846,69.657979 36.946344,69.18327 36.816836,68.688672 36.688102,68.194588 36.555827,67.680937 36.420849,67.146109 36.352941,66.93994 36.298873,66.755142 36.257871,66.58798 Z m -1.40147,-5.471222 c -0.1353,-0.580851 -0.267253,-1.131513 -0.395988,-1.64819 -0.128992,-0.516676 -0.261782,-1.043458 -0.396824,-1.578995 0.569522,0.355759 1.087486,0.724133 1.553891,1.106797 0.468208,0.381698 0.867929,0.750008 1.199356,1.104543 0.331878,0.353312 0.592888,0.6877 0.78245,1.003229 0.189819,0.315593 0.284889,0.590892 0.284889,0.824738 -0.0269,0.116891 -0.136265,0.188532 -0.325634,0.21621 -0.189047,0.02768 -0.459325,-0.007 -0.812122,-0.100542 -0.515454,-0.138325 -1.145288,-0.44761 -1.890018,-0.92779 z m 7.324293,5.305219 c -0.26352,-0.3042 -0.55137,-0.614708 -0.863166,-0.931524 0.419868,-0.294223 0.758827,-0.729153 1.016553,-1.306206 0.256182,-0.578341 0.385174,-1.178759 0.385174,-1.801513 0,-0.748077 -0.138261,-1.43198 -0.416134,-2.051708 -0.27781,-0.619793 -0.687122,-1.265977 -1.228966,-1.941125 l 0.01957,0.005 c -0.378415,-0.522984 -0.829244,-1.040884 -1.351456,-1.553827 -0.520474,-0.51423 -1.069849,-1.002971 -1.6451,-1.471179 -0.575058,-0.464604 -1.154621,-0.90037 -1.737918,-1.305949 -0.581623,-0.404806 -1.130998,-0.760822 -1.644907,-1.072359 l 0.01982,0.0066 c -0.487003,-0.318618 -0.894319,-0.520732 -1.217894,-0.607756 -0.24466,-0.06437 -0.468465,-0.07846 -0.670836,-0.03798 -0.203207,0.03798 -0.426691,0.126224 -0.671351,0.263262 -0.392254,0.112128 -0.781934,0.278132 -1.16743,0.493827 -0.386461,0.214986 -0.734689,0.547122 -1.046934,0.992415 l 0.01983,-0.01783 c -0.189047,0.246398 -0.338186,0.467886 -0.446002,0.66279 -0.108137,0.197093 -0.163428,0.47516 -0.163428,0.834265 0,0.154611 0.01056,0.309478 0.03064,0.464089 0.02015,0.152679 0.04448,0.318103 0.07119,0.497108 0.162656,1.11967 0.376356,2.340847 0.639875,3.665397 0.265001,1.325581 0.531031,2.682058 0.803112,4.072006 0.270986,1.389175 0.531223,2.779638 0.782191,4.171324 0.250196,1.391686 0.449799,2.70671 0.600161,3.946232 0.486553,0.412401 1.03213,0.822228 1.634866,1.233342 0.602928,0.41105 1.221434,0.794486 1.858799,1.152561 0.63743,0.357239 1.283613,0.677788 1.94061,0.964223 0.655968,0.284503 1.282841,0.507214 1.879204,0.666201 0.772666,0.207263 1.49049,0.298665 2.15431,0.272918 0.663305,-0.02382 1.177987,-0.2137 1.543786,-0.567076 0.216725,-0.222711 0.426691,-0.465376 0.630349,-0.729926 0.201148,-0.265837 0.385947,-0.560639 0.54841,-0.881188 0.161884,-0.323317 0.290876,-0.679848 0.385946,-1.066309 0.0943,-0.387234 0.142059,-0.807102 0.142059,-1.259669 0,-0.841088 -0.200118,-1.682111 -0.599646,-2.520688 -0.399335,-0.838513 -0.8846,-1.615427 -1.452062,-2.329518 -0.2585,-0.30169 -0.518222,-0.605439 -0.783222,-0.910218"
         style="fill:#ffffff;fill-opacity:1;fill-rule:nonzero;stroke:none"
         id="path4170"
         inkscape:connector-curvature="0" /><path
         d="m 47.382603,77.994513 c 0.57229,0.316687 1.196331,0.653972 1.876501,1.007992 0.679332,0.354664 1.387116,0.705466 2.123349,1.050475 0.736169,0.345652 1.490232,0.678431 2.262189,1.000268 0.772601,0.321836 1.537478,0.601191 2.295082,0.837419 l 0.107622,0.02896 c 0.45733,0.122942 0.810577,0.109424 1.060773,-0.03669 0.249681,-0.146114 0.440273,-0.416457 0.56978,-0.809098 l 0,0.02382 c 0.141286,-0.339859 0.242343,-0.62565 0.298922,-0.856729 0.05658,-0.231722 0.108394,-0.481467 0.151134,-0.748592 l -0.02137,0.01931 c 0.05709,-0.199538 0.08471,-0.414525 0.08471,-0.643673 0,-0.444134 -0.08471,-0.780132 -0.257211,-1.006705 -0.172247,-0.226573 -0.492539,-0.437054 -0.96551,-0.628868 C 56.225064,76.951119 55.461217,76.65181 54.67452,76.333836 53.888015,76.015218 53.051498,75.665059 52.164902,75.279499 51.9942,74.690538 51.814422,74.054332 51.628079,73.371652 51.44328,72.689036 51.249663,72.007644 51.05006,71.329277 c 0.614772,0.24717 1.236303,0.462093 1.865365,0.648179 l 0.150877,0.04023 c 0.414397,0.111871 0.742477,0.124487 0.985914,0.04152 0.242343,-0.08303 0.443491,-0.30877 0.600869,-0.678431 l 0,0.02465 c 0.171539,-0.33059 0.292678,-0.657512 0.364641,-0.974263 0.07087,-0.318104 0.142509,-0.63994 0.214665,-0.96551 l -0.02182,0.01886 c 0.05703,-0.232623 0.08619,-0.422442 0.08619,-0.569522 0,-0.279869 -0.08316,-0.529292 -0.247106,-0.744279 -0.163943,-0.21872 -0.37893,-0.409827 -0.643222,-0.579563 -0.265709,-0.17096 -0.572483,-0.330591 -0.921998,-0.481468 -0.349965,-0.151585 -0.711516,-0.310508 -1.083173,-0.475224 l 0.02137,0.005 c -0.543582,-0.277295 -1.072102,-0.538047 -1.587813,-0.781934 -0.513909,-0.246398 -1.022089,-0.5011 -1.521644,-0.766873 -0.115217,-0.359555 -0.230113,-0.748012 -0.343721,-1.165434 -0.11393,-0.417358 -0.185571,-0.776914 -0.214021,-1.079891 0.543388,0.25895 1.104092,0.516677 1.683656,0.77067 0.57879,0.253929 1.188993,0.467629 1.832666,0.639876 0.385946,0.103116 0.697742,0.09932 0.933583,-0.01004 0.236357,-0.10936 0.417423,-0.343206 0.546865,-0.704049 l 0,0.02439 c 0.172247,-0.347455 0.325634,-0.74222 0.460935,-1.183458 0.13575,-0.441302 0.204108,-0.875009 0.204108,-1.301958 0,-0.37893 -0.07994,-0.663047 -0.236292,-0.852867 -0.157185,-0.191106 -0.44304,-0.389744 -0.857437,-0.600418 C 52.40879,59.152267 51.467933,58.666487 50.503195,58.169893 49.5382,57.672076 48.604874,57.188034 47.703989,56.716608 l 0.02182,0.03019 c -0.400751,-0.222518 -0.736427,-0.370884 -1.0087,-0.442525 -0.314306,-0.08548 -0.589669,-0.109618 -0.825511,-0.07293 -0.235585,0.03392 -0.453082,0.119916 -0.653457,0.255216 -0.200633,0.135751 -0.404806,0.302977 -0.610975,0.503352 -0.208679,0.198123 -0.433256,0.430747 -0.675857,0.693494 l 0,-0.02388 c -0.199925,0.192329 -0.357045,0.422893 -0.471941,0.686863 -0.11393,0.266545 -0.172247,0.611747 -0.172247,1.040498 0,0.245626 0.02137,0.497817 0.06462,0.756767 l 3.73176,17.430541 0.279096,0.420319"
         style="fill:#ffffff;fill-opacity:1;fill-rule:nonzero;stroke:none"
         id="path4172"
         inkscape:connector-curvature="0" /><path
         d="M 66.443247,79.668707 C 66.018423,79.462088 65.570426,79.177584 65.10151,78.81584 64.895792,78.168948 64.694645,77.486655 64.496007,76.767028 64.297884,76.046114 64.08824,75.28658 63.868683,74.485528 l 0,0.02414 c -0.0289,-0.109103 -0.05857,-0.217755 -0.08876,-0.327115 -0.0289,-0.108909 -0.05755,-0.227088 -0.08722,-0.352025 0.748013,0.572033 1.426122,1.166401 2.036131,1.785614 0.608851,0.61857 1.122502,1.213324 1.540246,1.781044 0.418388,0.56772 0.741511,1.083302 0.969372,1.549321 0.227216,0.466663 0.341147,0.826477 0.341147,1.07944 l 0,0.02575 c -0.07402,0.199539 -0.404227,0.220137 -0.98997,0.06372 -0.337928,-0.09076 -0.72027,-0.24009 -1.146382,-0.446709 z M 65.167358,63.261992 c -0.367859,0.306195 -0.74473,0.648179 -1.133186,1.025307 -0.38923,0.37642 -0.774661,0.774467 -1.155587,1.196846 -0.381441,0.420383 -0.740997,0.85615 -1.079955,1.306721 -0.248136,-1.02962 -0.490801,-2.022035 -0.72587,-2.980014 -0.234619,-0.958751 -0.462157,-1.922201 -0.682165,-2.892281 -0.08722,-0.361294 -0.208421,-0.646634 -0.363032,-0.8566 -0.154159,-0.209967 -0.377965,-0.354536 -0.670321,-0.43448 -0.17701,-0.04654 -0.360586,-0.06083 -0.55195,-0.04454 -0.351252,0.02317 -0.688151,0.04203 -1.011725,0.05787 -0.323382,0.01384 -0.609237,0.06791 -0.857695,0.162141 -0.249874,0.09308 -0.447546,0.255217 -0.594368,0.486553 -0.147079,0.230049 -0.221488,0.573255 -0.221488,1.028847 0,0.237129 0.02208,0.504125 0.06688,0.802854 0.102795,0.568235 0.256954,1.414343 0.463123,2.541994 0.203658,1.127715 0.435509,2.369812 0.692721,3.731309 0.256439,1.358987 0.534764,2.77082 0.836003,4.236657 0.301239,1.464614 0.609751,2.822121 0.924508,4.070847 0.315593,1.248726 0.634854,2.322373 0.958236,3.21901 0.321837,0.896636 0.630349,1.45985 0.923735,1.690929 0.542617,0.431905 1.108341,0.865741 1.694985,1.302151 0.586322,0.43641 1.177664,0.838706 1.771067,1.208818 0.595397,0.370112 1.181269,0.700317 1.76154,0.98997 0.579306,0.291584 1.134796,0.507214 1.661964,0.649466 0.615996,0.16478 1.208175,0.213056 1.772676,0.144826 0.563858,-0.06758 1.052406,-0.31733 1.46307,-0.746661 0.249101,-0.270986 0.502065,-0.570294 0.75889,-0.897924 0.25747,-0.327629 0.49241,-0.699672 0.705466,-1.114842 0.211769,-0.4171 0.383629,-0.88505 0.51687,-1.406426 0.131309,-0.521375 0.198251,-1.103899 0.198251,-1.744354 0,-0.371399 -0.03347,-0.714477 -0.09913,-1.026659 -0.06565,-0.313469 -0.1577,-0.630156 -0.275492,-0.947487 l 0,0.02575 C 72.40173,76.745787 71.584909,75.45136 70.460412,74.162404 69.339133,72.87435 67.999005,71.582691 66.443247,70.288328 c 0.294803,-0.377192 0.612777,-0.769897 0.95843,-1.174703 0.344365,-0.405579 0.697098,-0.804592 1.056267,-1.197618 0.360457,-0.393478 0.715121,-0.7661 1.06721,-1.119348 0.352733,-0.352797 0.682938,-0.665043 0.990614,-0.936609 l 0,0.02517 c 0.32248,-0.267833 0.484685,-0.587867 0.484685,-0.959267 0,-0.253414 -0.07724,-0.505347 -0.231078,-0.759341 -0.154482,-0.252191 -0.337285,-0.477734 -0.550984,-0.677595 -0.212413,-0.201148 -0.425468,-0.375905 -0.637237,-0.526267 -0.213699,-0.150104 -0.379123,-0.249423 -0.495628,-0.297184 l 0.02188,0.03141 c -0.175723,-0.09681 -0.345009,-0.188531 -0.505928,-0.276071 -0.161562,-0.08419 -0.338572,-0.152615 -0.529099,-0.202886 -0.27871,-0.07492 -0.579306,-0.09681 -0.90243,-0.0654 -0.32248,0.0307 -0.660408,0.143861 -1.011854,0.336963 -0.293772,0.207391 -0.623655,0.465118 -0.990742,0.772408"
         style="fill:#ffffff;fill-opacity:1;fill-rule:nonzero;stroke:none"
         id="path4174"
         inkscape:connector-curvature="0" /><path
         d="m 11.779429,21.659591 c 0.773181,0.552851 1.599915,0.917942 2.476919,1.094952 0.569973,0.115668 1.107569,0.143604 1.610149,0.08426 0.501164,-0.06186 0.94871,-0.224513 1.339677,-0.494341 1.149536,-0.734431 2.195054,-1.250142 3.132114,-1.544816 0.936866,-0.294158 1.745706,-0.372107 2.42536,-0.234297 0.50464,0.101057 0.902366,0.303685 1.188993,0.61149 -0.03868,0.289138 -0.372107,0.668776 -1.001169,1.136727 -0.629834,0.468658 -1.366582,0.977804 -2.212627,1.526213 -0.781483,0.512428 -1.551381,1.025822 -2.311173,1.542305 -0.759341,0.516677 -1.435198,1.105767 -2.027828,1.768042 -0.593402,0.663048 -1.064828,1.435456 -1.414343,2.319734 -0.349772,0.8846 -0.516676,1.924003 -0.500327,3.118597 0.01609,1.242289 0.307225,2.653349 0.876232,4.231636 l -0.03296,-0.04377 c 0.274334,0.92425 0.685899,1.918726 1.237848,2.985292 0.54886,1.065858 1.175927,2.11054 1.878174,3.132886 0.702763,1.021316 1.460366,2.000408 2.272489,2.932962 0.810899,0.932811 1.60339,1.725108 2.377342,2.377857 l -0.06617,-0.05079 c 0.400557,0.427914 0.924507,0.825189 1.576033,1.194014 0.650432,0.364834 1.359503,0.626358 2.127598,0.781226 0.52601,0.106335 1.113104,0.131503 1.756777,0.07621 0.644446,-0.05561 1.30067,-0.178555 1.965714,-0.367087 0.665558,-0.188596 1.302923,-0.443297 1.910422,-0.767129 0.607692,-0.323897 1.130225,-0.690726 1.561937,-1.0983 0.670579,-0.633889 1.088194,-1.331567 1.252652,-2.092453 0.164652,-0.762109 0.244081,-1.488752 0.234555,-2.185978 l -0.01307,-0.932554 c -0.09629,-0.613485 -0.230821,-1.349976 -0.40635,-2.202071 -0.175208,-0.855377 -0.383887,-1.721825 -0.625265,-2.601083 -0.240926,-0.880545 -0.499104,-1.744934 -0.771957,-2.593295 -0.275299,-0.849584 -0.54738,-1.586783 -0.817915,-2.211597 -0.246913,-0.473228 -0.493312,-0.851129 -0.737199,-1.134989 -0.245111,-0.285662 -0.552658,-0.465955 -0.925989,-0.541329 -0.307289,-0.0616 -0.668583,-0.03521 -1.081692,0.08046 l 0.03141,-0.03218 c -2.727565,0.616767 -4.077734,1.992876 -4.050121,4.132575 0.0041,0.248393 0.06913,0.64039 0.1969,1.175218 0.126482,0.533026 0.271566,1.114842 0.432935,1.743196 0.16169,0.628032 0.316816,1.260892 0.46795,1.898836 0.150105,0.638395 0.250646,1.172644 0.300467,1.6059 l -0.06662,-0.05156 -0.0327,-0.04448 c -0.398048,-0.303749 -0.841796,-0.753097 -1.330859,-1.347208 -0.491058,-0.594625 -0.952443,-1.252395 -1.389948,-1.973502 -0.435445,-0.719626 -0.802532,-1.477165 -1.096755,-2.26824 -0.294931,-0.79101 -0.445743,-1.535225 -0.455849,-2.231679 -0.0098,-0.7717 0.189369,-1.388468 0.600418,-1.849338 l 0,0.03547 c 0.776978,-0.8109 1.654498,-1.520936 2.630822,-2.129915 0.977289,-0.608207 1.893751,-1.224717 2.751188,-1.845282 0.855634,-0.621274 1.580217,-1.299641 2.171882,-2.036132 0.59263,-0.735654 0.881768,-1.638598 0.867929,-2.708448 -0.0093,-0.722845 -0.183512,-1.488751 -0.522985,-2.302354 l 0,0.03791 c -0.271051,-0.699737 -0.637365,-1.462297 -1.09624,-2.28504 -0.460097,-0.825189 -1.061546,-1.628493 -1.80531,-2.411715 -0.743764,-0.783492 -1.639822,-1.503092 -2.68785,-2.160849 -1.049188,-0.659765 -2.286006,-1.143775 -3.711935,-1.458068 l -0.428686,-0.08498 c -1.799518,-0.363579 -3.506217,-0.242639 -5.11643,0.36307 -1.612466,0.603695 -3.182642,1.831952 -4.713426,3.68127 -0.90642,0.95843 -1.354932,1.785421 -1.345663,2.482648 l 0,0.07467 c 0.05529,0.803883 0.414848,1.485018 1.077895,2.040894 l 0.06662,0.05034"
         style="fill:#ffffff;fill-opacity:1;fill-rule:nonzero;stroke:none"
         id="path4176"
         inkscape:connector-curvature="0" /><path
         d="m 45.725145,41.229251 c -0.368825,-1.244349 -0.754256,-2.562656 -1.159063,-3.95608 1.213131,0.784702 2.291027,1.612466 3.232656,2.483935 0.941115,0.871469 1.728134,1.712235 2.363761,2.521848 0.633632,0.809161 1.119863,1.562194 1.458821,2.261932 0.336899,0.696969 0.509918,1.291144 0.515969,1.7804 7.08e-4,0.05078 0.01332,0.11187 0.03669,0.181515 0.02439,0.06894 0.0068,0.130022 -0.04853,0.182804 -0.05658,0.05284 -0.18055,0.07846 -0.374167,0.07846 -0.191557,0 -0.492797,-0.04126 -0.902366,-0.124229 -0.523757,-0.105562 -1.138529,-0.306195 -1.845025,-0.604409 -0.707075,-0.295961 -1.438995,-0.701539 -2.194539,-1.213195 -0.354535,-1.151081 -0.717116,-2.349407 -1.084203,-3.592984 z M 53.51462,35.819886 C 52.420891,34.738966 51.239622,33.696988 49.967659,32.694016 48.69589,31.691302 47.367026,30.736091 45.984159,29.82716 44.598266,28.917714 43.22087,28.093748 41.850554,27.354811 41.44401,25.728764 41.042165,24.137732 40.647464,22.580043 40.2527,21.021646 39.886836,19.47638 39.549937,17.942378 39.338233,17.384442 39.115715,16.954983 38.884894,16.651234 38.654845,16.347999 38.30031,16.148358 37.822576,16.051305 c -0.296219,-0.0606 -0.590892,-0.08121 -0.885051,-0.06387 -0.543582,0.09655 -1.086971,0.193102 -1.628815,0.289151 -0.544354,0.09655 -1.024599,0.242639 -1.441184,0.442294 -0.41665,0.198122 -0.753098,0.476962 -1.009537,0.83729 -0.25644,0.359298 -0.380154,0.862393 -0.372108,1.506839 0.005,0.386204 0.103567,0.907644 0.294159,1.562903 0.302977,0.702762 0.629126,1.842772 0.979349,3.417261 0.349965,1.574489 0.713576,3.357914 1.090447,5.350276 0.378415,1.991332 0.763911,4.054369 1.152818,6.190849 0.391289,2.135643 0.775691,4.114938 1.151081,5.939108 0.376678,1.823397 0.741769,3.370723 1.099265,4.63773 0.357046,1.267972 0.684675,2.022292 0.982632,2.262382 0.870439,0.663563 1.814579,1.349719 2.833642,2.056021 1.018356,0.707268 2.071083,1.374822 3.156316,2.006909 1.086649,0.629384 2.166089,1.181784 3.238191,1.65424 1.073132,0.474452 2.097731,0.809612 3.07457,1.00722 0.955468,0.193102 1.82919,0.221488 2.623225,0.08625 0.78998,-0.136266 1.477166,-0.506378 2.059755,-1.109113 0.358268,-0.389165 0.731663,-0.847589 1.12263,-1.372312 0.388457,-0.526524 0.743764,-1.110336 1.064829,-1.753237 0.320098,-0.64245 0.583361,-1.34798 0.788242,-2.114595 0.206168,-0.768352 0.301754,-1.604613 0.291198,-2.507043 -0.0179,-1.367033 -0.335161,-2.645368 -0.951671,-3.836871 -0.618828,-1.190087 -1.340965,-2.359706 -2.172397,-3.503513 -0.810385,-1.063348 -1.759095,-2.135193 -2.849542,-3.217594"
         style="fill:#ffffff;fill-opacity:1;fill-rule:nonzero;stroke:none"
         id="path4178"
         inkscape:connector-curvature="0" /><path
         d="m 70.011771,45.125984 c -0.775626,-1.820372 -1.555758,-3.701893 -2.339108,-5.645722 0.771764,0.344945 1.531299,0.660538 2.279247,0.946136 0.747948,0.284632 1.509413,0.558966 2.285683,0.825961 -0.0097,1.537027 -0.01867,3.062469 -0.02832,4.575101 -0.0077,1.512117 -0.0019,3.000868 0.01738,4.465225 -0.699673,-1.623988 -1.437322,-3.345813 -2.21488,-5.166701 z m 2.669313,-13.121921 -0.119723,0.778715 C 70.867857,32.050343 69.20718,31.32119 67.57933,30.593067 65.950837,29.864364 64.519437,29.155809 63.284099,28.466435 62.92332,27.611508 62.585907,26.701612 62.270829,25.73784 61.9553,24.77233 61.630953,23.873183 61.294505,23.038403 60.960375,22.202915 60.617683,21.494102 60.268168,20.912801 59.917881,20.33047 59.51713,19.977737 59.065529,19.854023 c -0.401523,-0.109875 -0.847846,-0.122234 -1.33633,-0.03972 l -0.46441,0.115604 c -0.414397,0.104404 -0.829759,0.220265 -1.243898,0.350287 -0.414333,0.131245 -0.785925,0.293386 -1.117095,0.487261 -0.32763,0.193874 -0.601706,0.428686 -0.822164,0.707268 -0.219557,0.278131 -0.341983,0.629641 -0.366636,1.05704 -0.01429,0.292935 -9.66e-4,0.620565 0.04229,0.984112 0.04274,0.363096 0.139999,0.794292 0.289653,1.295135 0.73868,2.256139 1.645873,4.835852 2.718747,7.73766 1.07236,2.901614 2.206319,5.868239 3.399882,8.897559 1.192533,3.027774 2.390666,5.978372 3.594528,8.847223 1.200322,2.868852 2.314327,5.391278 3.339699,7.562645 0.388135,0.80839 0.862522,1.526986 1.428311,2.15431 0.563214,0.626101 1.358794,1.080406 2.388671,1.360275 1.732125,0.473936 3.190044,0.715829 4.374403,0.729153 1.183715,0.01255 2.223891,-0.02214 3.121171,-0.101829 l 0.688731,-0.01461 c 0.794292,-0.0822 1.341415,-0.302204 1.643941,-0.666781 0.298664,-0.364576 0.469238,-0.892581 0.509146,-1.585302 0.0064,-0.134013 0.01609,-0.279097 0.02446,-0.438728 0.0064,-0.134013 0.0026,-0.269828 -0.01545,-0.409827 l -0.0026,0.04068 c -0.102344,-1.814064 -0.165424,-3.953054 -0.193745,-6.420897 -0.02832,-2.468551 -0.03283,-5.077938 -0.01867,-7.831636 0.01287,-2.753763 0.05085,-5.563268 0.110068,-8.425618 0.05922,-2.863059 0.122942,-5.584638 0.189884,-8.160553 0.04892,-0.852867 -0.06952,-1.478453 -0.352089,-1.880749 -0.282573,-0.401781 -0.888913,-0.730634 -1.818377,-0.983597 -0.702248,-0.191879 -1.35622,-0.342949 -1.961916,-0.453854 -0.605053,-0.110648 -1.243577,-0.110133 -1.91171,0.0058 l 0.03991,-0.03019 c -0.793005,0.05484 -1.345277,0.261267 -1.658746,0.62108 -0.314756,0.361294 -0.525237,1.066566 -0.635305,2.119036 -0.149332,1.283613 -0.272274,2.790967 -0.368825,4.521805"
         style="fill:#ffffff;fill-opacity:1;fill-rule:nonzero;stroke:none"
         id="path4180"
         inkscape:connector-curvature="0" /><path
         d="m 106.29048,42.147709 c 0.35338,-0.28386 0.56643,-0.694459 0.63595,-1.231991 0.0476,-0.375905 0.0187,-0.798798 -0.0862,-1.268744 -0.10621,-0.471684 -0.23687,-0.970531 -0.39007,-1.499566 -0.7988,-2.630241 -2.02306,-4.955768 -3.67344,-6.980121 -1.65102,-2.02757 -3.750042,-3.479053 -6.295769,-4.356315 -0.213056,-0.07344 -0.398434,-0.137038 -0.557421,-0.191879 -0.1577,-0.05478 -0.305745,-0.09198 -0.442204,-0.110583 l 0.03991,0.01403 c -1.210749,-0.277295 -2.314005,-0.419096 -3.309768,-0.426176 -0.994475,-0.0062 -1.896904,0.0046 -2.703427,0.03469 l 0.03862,0.01435 c -0.411307,-0.03096 -0.847717,0.02311 -1.306656,0.158922 -0.460227,0.134528 -0.910154,0.337929 -1.345277,0.608207 -0.435767,0.269764 -0.838063,0.59366 -1.202382,0.971303 -0.368824,0.379124 -0.663627,0.781419 -0.883763,1.210878 l 0.0103,-0.08117 c -0.417744,0.668004 -0.760822,1.453543 -1.027946,2.355908 -0.267125,0.901143 -0.468594,1.876951 -0.603766,2.92292 -0.209194,1.636861 -0.242665,3.509821 -0.09784,5.618559 0.146114,2.11009 0.460226,4.297806 0.944912,6.566754 0.483399,2.267661 1.122566,4.519294 1.917503,6.752776 0.793005,2.235477 1.725687,4.301282 2.798047,6.197092 1.071716,1.895811 2.279247,3.539752 3.624524,4.92764 1.345277,1.387181 2.812852,2.355201 4.404012,2.904061 0.13324,0.04525 0.265193,0.0905 0.398433,0.136265 0.158988,0.05484 0.306389,0.09127 0.442204,0.110648 l -0.03991,-0.01384 c 0.673926,0.147852 1.379392,0.264807 2.11511,0.350802 0.737003,0.08496 1.452123,0.121396 2.146653,0.108845 0.69323,-0.01384 1.3575,-0.07164 1.99538,-0.174242 0.63595,-0.103567 1.18758,-0.256955 1.65618,-0.45939 1.19916,-0.483527 2.01405,-1.127651 2.44982,-1.929732 0.43512,-0.802854 0.72284,-1.752529 0.86445,-2.85379 0.0753,-0.589604 0.13066,-1.237075 0.16478,-1.939323 0.0341,-0.70199 0.0418,-1.408035 0.0225,-2.114595 -0.0206,-0.708298 -0.0637,-1.401727 -0.12745,-2.081124 -0.0644,-0.68165 -0.16092,-1.296101 -0.28386,-1.842 -0.0463,-0.07293 -0.0785,-0.139806 -0.0978,-0.201663 -0.10234,-0.51217 -0.24781,-0.934549 -0.44027,-1.266684 -0.1931,-0.3322 -0.63337,-0.617798 -1.32339,-0.854669 -0.13389,-0.04576 -0.27936,-0.09526 -0.43834,-0.151328 -0.1577,-0.05407 -0.33536,-0.08754 -0.52717,-0.09784 -0.92496,-0.122942 -1.71282,-0.135236 -2.36164,-0.03669 -0.65011,0.09855 -1.20238,0.300725 -1.65617,0.606469 -0.45508,0.306968 -0.82712,0.716795 -1.11355,1.234501 -0.28837,0.517449 -0.52009,1.138014 -0.695172,1.862147 -0.06694,0.508437 -0.111999,1.031872 -0.139033,1.569983 -0.02832,0.536823 -0.06823,1.006254 -0.11908,1.409773 -0.03733,0.294159 -0.09977,0.560189 -0.186021,0.796546 -0.08625,0.236871 -0.200826,0.385946 -0.347584,0.447546 -0.394572,-0.163429 -0.861235,-0.736684 -1.399989,-1.721311 -0.536824,-0.98437 -1.071716,-2.156306 -1.604677,-3.516323 -0.531031,-1.358729 -1.029878,-2.814332 -1.495897,-4.359598 -0.467307,-1.548871 -0.838062,-2.986837 -1.109693,-4.311388 -0.332779,-1.713522 -0.546478,-3.399109 -0.640454,-5.05483 -0.09205,-1.656235 -0.06115,-3.074054 0.09076,-4.255774 0.09848,-0.778458 0.24717,-1.405267 0.447996,-1.883516 0.200182,-0.477735 0.467307,-0.729153 0.802017,-0.753806 l 0.160275,0.05684 c 0.821327,0.281865 2.019846,1.743711 3.589765,4.387019 1.148313,1.852556 2.582419,3.075535 4.306819,3.66971 0.37075,0.127447 0.75374,0.22329 1.14574,0.289653 0.39328,0.06437 0.81102,0.104339 1.25194,0.115926 0.7177,0.02311 1.25323,-0.108138 1.60854,-0.390774"
         style="fill:#ffffff;fill-opacity:1;fill-rule:nonzero;stroke:none"
         id="path4182"
         inkscape:connector-curvature="0" /><path
         d="m 76.555353,75.152052 10.533068,-3.781323 c 0,0 -33.44161,-39.019893 -68.578485,-13.419842 0,0 27.899476,-24.274722 58.045417,17.201165 z"
         style="fill:#231f20;fill-opacity:1;fill-rule:nonzero;stroke:none"
         id="path4184"
         inkscape:connector-curvature="0"
         sodipodi:nodetypes="cccc" /><path
         d="m 83.149785,72.28172 c 0,0 0.280642,-2.577976 -0.459583,-3.769801 0,0 -0.670707,-1.418076 -2.305637,-1.930247 0,0 0.460226,0.03772 0.444778,1.283549 0,0 -0.241377,-1.673293 -2.194282,-2.848769 -1.953548,-1.171678 -1.853779,-1.898321 -1.853779,-1.898321 0,0 0.286435,1.033932 0.901787,1.758064 0,0.129508 1.32661,1.589809 0.955211,2.536459 -0.373974,0.945878 -1.551896,-1.823655 -3.380572,-2.50125 -1.828676,-0.679397 -2.082283,-1.469634 -2.340396,-1.734892 -0.258756,-0.265322 1.486885,1.758258 2.214236,3.86455 0.727994,2.107772 -0.03605,1.538765 0.955211,2.866341 0.992544,1.327061 0.475031,2.252341 -0.966153,0.775175 0,0 -0.576732,-0.539333 -1.202382,-0.286627 0,0 0.131309,0.08548 0.537467,0.868701 0.408733,0.781934 0.636593,1.817089 4.051279,2.452974 0,0 0.942982,-3.428525 4.642815,-1.435906"
         style="fill:#ffffff;fill-opacity:1;fill-rule:nonzero;stroke:none"
         id="path4188"
         inkscape:connector-curvature="0" /><path
         d="m 78.428442,67.718656 c 0.13839,0 0.243309,-0.08928 0.312825,-0.265257 0.307676,-0.78496 -0.437054,-1.851076 -0.794292,-2.363504 -0.06759,-0.09604 -0.144183,-0.206683 -0.155769,-0.236357 l 0,-0.04074 -0.02253,-0.0088 c -0.148045,-0.172247 -0.274205,-0.362839 -0.384273,-0.552658 0.275492,0.248908 0.657834,0.540557 1.19337,0.860655 1.882101,1.130162 2.138926,2.753184 2.142145,2.77082 l 0.220136,-0.01513 c 0.0064,-0.485973 -0.05857,-0.802789 -0.147401,-1.009473 1.254519,0.579564 1.79263,1.68887 1.797779,1.703481 0.610846,0.983083 0.508502,2.963665 0.463445,3.545224 -0.726064,-0.370885 -1.399989,-0.558194 -2.003755,-0.558194 l -6.44e-4,0 c -1.782974,0 -2.46913,1.624245 -2.617818,2.041925 -2.991793,-0.5748 -3.426273,-1.461138 -3.776431,-2.177225 -0.03476,-0.06662 -0.0663,-0.134527 -0.1017,-0.200375 -0.210482,-0.407317 -0.35209,-0.633632 -0.442204,-0.758054 l 0.154482,-0.01461 c 0.42418,0 0.775626,0.320099 0.779488,0.323124 0.498847,0.512429 0.931395,0.785217 1.248726,0.785217 0.16478,0 0.292871,-0.07544 0.361101,-0.212476 0.157699,-0.316301 -0.02575,-0.888334 -0.480181,-1.49551 -0.529743,-0.708298 -0.539398,-0.846624 -0.561926,-1.177214 -0.01931,-0.281157 -0.04763,-0.70405 -0.377837,-1.658231 -0.280641,-0.81592 -0.743442,-1.71481 -1.379391,-2.68032 0.324411,0.228054 0.760822,0.466921 1.3633,0.690726 0.899211,0.331878 1.656171,1.207595 2.20973,1.848758 0.443491,0.514231 0.737649,0.854154 0.999624,0.854154 z m -5.60575,-4.677187 -0.03025,0.06282 c -0.03283,0.06417 -0.02253,0.07846 0.108137,0.251998 1.033095,1.373534 1.747572,2.626187 2.126696,3.721203 0.318618,0.927276 0.346296,1.331374 0.364963,1.59985 0.0251,0.367602 0.03605,0.534313 0.605053,1.297452 0.449283,0.599646 0.552915,1.07487 0.459582,1.262179 -0.01867,0.03901 -0.05664,0.08928 -0.162849,0.08928 -0.117792,0 -0.459583,-0.07042 -1.095532,-0.721623 -0.01995,-0.01886 -0.419031,-0.386718 -0.932682,-0.386718 -0.133884,0 -0.265194,0.02517 -0.389423,0.07544 l -0.198895,0.07994 0.180229,0.116956 c -0.0013,0 0.132596,0.116891 0.49949,0.824674 0.03411,0.06463 0.0663,0.13073 0.09848,0.19735 0.375262,0.767387 0.843212,1.721118 4.030682,2.314971 l 0.100413,0.01764 0.02639,-0.09784 C 78.636992,73.666068 79.183471,71.77 81.049479,71.77 l 6.44e-4,0 c 0.608271,0 1.296358,0.204945 2.047525,0.609751 l 0.144826,0.07795 0.01738,-0.164716 c 0.01223,-0.106849 0.27678,-2.629984 -0.475674,-3.838159 -0.0206,-0.04647 -0.685512,-1.419299 -2.299201,-1.95741 l -0.0914,-0.02639 -0.0103,0.05079 c -0.332136,-0.515453 -0.859948,-1.100488 -1.690286,-1.598369 -1.031808,-0.619278 -1.470793,-1.105058 -1.657459,-1.406233 -0.09784,-0.251998 -0.147401,-0.42624 -0.148044,-0.42875 l -0.217562,0.01461 c -6.44e-4,0.01937 -0.0206,0.203658 0.166711,0.514166 0.145471,0.367087 0.39071,0.886338 0.746018,1.310519 0.01931,0.05278 0.07016,0.129442 0.182159,0.289846 0.336641,0.480759 1.03567,1.481478 0.769833,2.154825 -0.03218,0.08297 -0.06823,0.125709 -0.106206,0.125709 -0.160918,0 -0.502065,-0.395473 -0.832269,-0.778201 -0.568364,-0.657512 -1.348496,-1.55962 -2.300488,-1.912868 -1.455989,-0.541136 -1.880813,-1.138272 -2.133777,-1.49609 -0.05922,-0.08297 -0.111355,-0.156348 -0.166068,-0.212412 l -0.103631,-0.05587 -0.06952,-0.0012"
         style="fill:#231f20;fill-opacity:1;fill-rule:nonzero;stroke:none"
         id="path4190"
         inkscape:connector-curvature="0" /><path
         d="m 85.773397,59.357663 c -6.44e-4,0.02317 -0.0013,0.04654 -0.0019,0.0699 0,0 0.0039,-0.0168 0.01287,-0.04827 -0.0032,-0.0073 -0.0071,-0.01429 -0.01094,-0.02163"
         style="fill:#231f20;fill-opacity:1;fill-rule:nonzero;stroke:none"
         id="path4192"
         inkscape:connector-curvature="0" /><path
         d="m 86.984146,55.863741 c -0.63788,0.715571 -1.145094,1.812326 -1.210749,3.493922 0.0039,0.0073 0.0077,0.01435 0.01094,0.02163 0.07917,-0.280835 0.521375,-1.726847 1.500402,-2.836668 -0.101701,-0.224256 -0.202114,-0.450314 -0.300596,-0.678882"
         style="fill:#231f20;fill-opacity:1;fill-rule:nonzero;stroke:none"
         id="path4194"
         inkscape:connector-curvature="0" /><path
         d="m 78.590004,74.355506 c 0,0 -8.927103,-2.616917 -12.444777,-5.708287 l -0.412144,-2.005943 -2.838664,-3.252352 -3.127093,-0.480244 -2.008968,2.075138 -0.711581,1.995644 1.325581,3.810481 1.408743,1.157324 1.887057,0.451859 2.106291,0.531288 3.864743,2.07488 5.160972,3.07354 4.232795,1.785549 4.203829,1.540954 0.07853,1.598884 -2.066835,0.06372 -0.780776,0.399721 -0.491766,3.620018 0.735718,1.884032 1.006705,0.910797 1.295071,1.0479 2.040444,1.271255 1.771388,0.292871 1.044682,-0.130666 0.635949,-0.82197 1.793274,2.739473 9.986589,14.819934 11.10787,8.22872 11.33251,3.06388 0.34308,-0.91144 c 0,0 4.98911,-6.44639 -10.59036,-24.194389 L 96.10049,81.11504 l -3.903878,-2.366142 0.316043,-1.200451 0.910798,-1.006705 c 0,0 4.272059,-8.800943 3.595559,-11.78173 l 0.14547,-2.738893 c 0,0 -0.329561,-4.731964 -4.576517,-6.044735 0,0 -3.303974,-1.287347 -5.697151,2.827656 0,0 -0.384917,1.792244 0.762109,3.258596 0,0 0.389422,7.264688 -4.15298,10.668368 0,0 -2.617175,-1.999378 -4.909939,1.624502"
         style="fill:#ffffff;fill-opacity:1;fill-rule:nonzero;stroke:none"
         id="path4198"
         inkscape:connector-curvature="0" /><path
         d="m 87.607222,57.233542 c -0.234941,0.372172 -0.43641,0.817465 -0.584455,1.35049 0.241377,-0.390259 0.491122,-0.72793 0.74473,-1.020093 -0.05407,-0.109617 -0.107494,-0.21975 -0.160275,-0.330397"
         style="fill:#231f20;fill-opacity:1;fill-rule:nonzero;stroke:none"
         id="path4200"
         inkscape:connector-curvature="0" /><path
         d="m 90.99938,55.348802 c -0.344365,0 -2.255431,0.08426 -3.392158,1.88474 0.05278,0.110647 0.106206,0.22078 0.160275,0.330397 1.268036,-1.460044 2.638416,-1.778147 3.592983,-1.778147 0.454434,0 0.814247,0.07145 1.023441,0.127512 -0.491766,-0.271051 -0.950705,-0.453854 -1.378748,-0.563729 -0.0019,-7.73e-4 -0.0039,-7.73e-4 -0.0058,-7.73e-4 m 3.031057,1.275761 c 0.0039,0.0038 0.0077,0.0079 0.01159,0.01184 0.01159,0.0073 0.02317,0.01461 0.03476,0.02188 -0.01545,-0.01133 -0.0309,-0.0224 -0.04634,-0.03373"
         style="fill:#231f20;fill-opacity:1;fill-rule:nonzero;stroke:none"
         id="path4202"
         inkscape:connector-curvature="0" /><path
         d="m 86.829021,59.559069 c -0.02317,0.178297 -0.0412,0.364319 -0.05343,0.558193 0,0 0.02189,-0.07589 0.06823,-0.207198 -0.0103,-0.124422 -0.01416,-0.242086 -0.01481,-0.350995"
         style="fill:#231f20;fill-opacity:1;fill-rule:nonzero;stroke:none"
         id="path4204"
         inkscape:connector-curvature="0" /><path
         d="m 91.005173,55.349575 c 0.428043,0.109875 0.886982,0.292678 1.378748,0.563729 0.131953,0.03469 0.204044,0.06308 0.204044,0.06308 0.547122,0.168706 1.029234,0.394764 1.454058,0.660022 -0.0039,-0.004 -0.0077,-0.008 -0.01159,-0.01184 -0.755029,-0.542553 -1.734699,-1.029363 -2.976345,-1.274473 0,0 -0.01738,-5.15e-4 -0.04892,-5.15e-4"
         style="fill:#231f20;fill-opacity:1;fill-rule:nonzero;stroke:none"
         id="path4206"
         inkscape:connector-curvature="0" /><path
         d="m 81.473016,85.29248 2.359063,3.88328 c 0,0 1.320173,2.84053 -2.187202,1.103899 0,0 -3.03685,-2.5129 -2.602371,-4.859089 0,0 0.193746,-1.119991 0.716409,-1.132864 l 1.221048,0.12616 0.493053,0.878614"
         style="fill:#ed1c24;fill-opacity:1;fill-rule:nonzero;stroke:none"
         id="path4212"
         inkscape:connector-curvature="0" /><path
         d="m 78.249501,75.81761 2.035938,3.472617 c 0,0 -10.81564,-3.440433 -15.143184,-7.772418 0,0 -3.801727,-0.113609 -4.860763,-1.192276 0,0 -2.761036,-3.615641 0.32557,-5.757335 0,0 2.8787,-1.372118 4.805986,3.963868 l 0.497881,0.849327 c 0,0 9.247653,6.258563 12.338572,6.436217"
         style="fill:#ed1c24;fill-opacity:1;fill-rule:nonzero;stroke:none"
         id="path4210"
         inkscape:connector-curvature="0" /><path
         d="m 85.188298,73.250963 5.724186,3.709167 c 0,0 5.746714,-8.275964 4.939548,-16.199195 0,0 -1.846698,-3.40516 -4.311967,-3.980217 0,0 -3.317491,0.679397 -3.240251,3.355919 0,0 -0.03926,1.961207 1.782331,2.412036 0,0 1.592448,9.088601 -4.893847,10.70229"
         style="fill:#ed1c24;fill-opacity:1;fill-rule:nonzero;stroke:none"
         id="path4214"
         inkscape:connector-curvature="0" /><path
         d="m 121.61055,113.04252 -0.35467,6.49917 C 98.930721,110.01211 84.420396,83.149691 84.420396,83.149691 c 0.25232,-0.41195 0.570294,-0.749879 0.94105,-1.025371 l -1.08652,-1.024084 -3.69211,-6.293837 c 0.653972,-1.943893 2.352626,-1.852877 2.352626,-1.852877 0.4171,0.08496 15.802821,10.263111 15.802821,10.263111 -0.124873,0.04441 -0.239447,0.08625 -0.362388,0.130022 21.941535,19.359115 23.234675,29.695865 23.234675,29.695865"
         style="fill:#ed1c24;fill-opacity:1;fill-rule:nonzero;stroke:none"
         id="path4216"
         inkscape:connector-curvature="0" /><path
         d="m 113.47259,98.608147 c 11.90087,15.036203 7.60113,20.611703 7.60113,20.611703 l -0.34372,0.91144 -11.33187,-3.06388 -8.79257,-6.51269 c 0.84643,-0.0109 2.63713,-0.22142 4.81339,-1.57185 2.46655,-1.5313 5.42423,-4.53983 8.05364,-10.374723"
         style="fill:#ed1c24;fill-opacity:1;fill-rule:nonzero;stroke:none"
         id="path4218"
         inkscape:connector-curvature="0" /><path
         d="m 113.49318,98.136978 c 7.50716,9.340342 8.11737,14.223242 8.11737,14.223242 l -0.35467,6.49917 c -5.86193,-2.50195 -11.17803,-6.20372 -15.84208,-10.29555 2.47556,-1.53709 5.4429,-4.55592 8.07938,-10.426862"
         style="fill:#ffffff;fill-opacity:1;fill-rule:nonzero;stroke:none"
         id="path4220"
         inkscape:connector-curvature="0" /><path
         d="m 118.51319,119.54169 c 0,0 -0.54197,-2.46592 2.75557,-2.3758 0,0 0.99383,4.11822 -2.75557,2.3758"
         style="fill:#231f20;fill-opacity:1;fill-rule:nonzero;stroke:none"
         id="path4222"
         inkscape:connector-curvature="0" /><path
         d="m 102.44582,103.75753 c -0.97323,-0.10492 -1.8055,0.065 -2.41056,0.49177 -0.565141,0.39586 -0.887621,0.99383 -0.934609,1.72762 -0.0869,1.36652 0.764683,3.03492 2.273449,4.4613 1.44763,1.36845 3.27888,2.29212 4.89836,2.46977 0.97259,0.10685 1.80614,-0.0605 2.40734,-0.48726 1.67483,-1.17663 1.08523,-3.90002 -1.3382,-6.19278 -1.44634,-1.36716 -3.27759,-2.29148 -4.89578,-2.47042"
         style="fill:#ffffff;fill-opacity:1;fill-rule:nonzero;stroke:none"
         id="path4224"
         inkscape:connector-curvature="0" /><path
         d="m 103.29032,105.37701 c -0.54519,0 -0.99576,0.17637 -1.30537,0.51108 -0.28901,0.3109 -0.43126,0.74087 -0.41259,1.24229 0.036,0.9314 0.60955,1.99796 1.53387,2.85276 0.88505,0.81811 1.95548,1.30794 2.86434,1.30794 0.54713,0 0.9977,-0.17572 1.30602,-0.50914 0.85608,-0.92367 0.36303,-2.72338 -1.11999,-4.09698 -0.88634,-0.8194 -1.95806,-1.30795 -2.86628,-1.30795"
         style="fill:#231f20;fill-opacity:1;fill-rule:nonzero;stroke:none"
         id="path4226"
         inkscape:connector-curvature="0" /><path
         d="m 44.094141,49.717434 c -4.331727,0 -8.608163,0.690404 -12.801823,2.061492 2.750416,-0.709263 5.498836,-1.063798 8.233739,-1.063798 13.064571,0 25.555821,8.112277 37.129709,24.113156 l 9.96728,-3.577471 C 84.309684,68.641426 66.736119,49.717434 44.094141,49.717434 Z M 76.455584,75.477107 76.335217,75.311683 C 64.836253,59.349617 52.45153,51.256199 39.526057,51.256199 c -7.004516,0 -14.111312,2.379081 -21.123037,7.070879 l -0.305488,-0.447095 c 8.264636,-5.775937 17.011575,-8.703878 25.996609,-8.703878 24.451987,0 43.017453,21.801147 43.201543,22.021927 l 0.249745,0.297956 -11.089845,3.981119"
         style="fill:#ffffff;fill-opacity:1;fill-rule:nonzero;stroke:none"
         id="path4186"
         inkscape:connector-curvature="0"
         sodipodi:nodetypes="scsccsccsccsccc" /><path
         d="m 87.2178,58.795222 c -0.370112,1.682883 0.606984,3.12735 0.617926,3.141704 l 0.03733,0.09752 c 0.712546,5.36817 -3.44687,10.585399 -3.641903,10.824266 l -0.08818,0.08554 c 0.7885,0.533283 3.540202,2.419567 6.802982,4.84171 3.293676,-1.292496 5.666255,-11.976956 5.684922,-12.063723 0.686155,-6.207907 -1.539023,-7.690093 -1.560264,-7.703159 l -0.04956,-0.04152 c -1.653596,-1.857126 -3.243469,-2.286328 -4.28622,-2.32173 -0.549053,-0.01738 -0.921096,0.08246 -1.006705,0.106078 -1.408357,0.839028 -2.252212,1.861631 -2.510325,3.03331 z m -1.822883,33.045989 c 0.289653,-0.46602 0.274205,-1.236497 -0.04055,-2.228397 -0.220136,-0.358526 -0.439629,-0.720914 -0.655259,-1.08652 -0.368825,-0.597329 -0.740868,-1.231991 -1.094889,-1.845411 -1.05498,-1.605965 -2.026927,-3.087701 -2.207799,-3.361262 -0.09848,-0.03218 -0.382985,-0.08496 -0.77112,-0.09655 -0.764684,-0.0251 -1.65424,0.122298 -1.856354,0.61149 -0.0032,0.0045 -0.199538,0.439629 -0.33471,1.094888 -0.451215,2.681542 0.882476,4.437483 2.071341,5.431958 1.097462,0.815534 2.739473,1.807434 4.28815,1.912353 0.01545,-0.0019 0.367538,-0.05793 0.601191,-0.432548 z m -2.971195,-11.595129 -0.37848,0.229791 c -0.02575,-0.04248 -2.58113,-4.181945 -3.459744,-5.277477 -1.892399,-0.773695 -10.695273,-4.434844 -12.599902,-6.399077 l -0.08175,-0.08297 0.06759,-0.315078 -0.01159,-0.0251 0,-0.0013 -0.0071,-0.01937 -0.0019,-0.0057 c -0.230306,-0.268283 -0.257984,-0.462672 -0.227023,-0.587609 -0.585357,-1.379907 -2.124637,-4.369962 -4.522834,-4.445401 -0.467693,-0.01635 -0.955469,0.08297 -1.420587,0.281607 -0.01764,0.0075 -1.636089,0.961005 -2.005686,2.795216 -0.274848,1.366518 0.202114,2.874644 1.399732,4.458724 0.01506,0.01429 1.534517,1.46455 5.286423,1.722276 l 0.05954,0.0043 0.04982,0.0327 c 0.174757,0.117663 0.348999,0.230821 0.520989,0.343206 l 0.206426,0.137038 c 0.857244,0.503095 2.201877,1.292367 2.878377,1.677863 2.574693,1.401277 5.16934,2.919058 5.171271,2.92292 5.661106,2.769726 9.410502,3.621949 9.449123,3.629673 l 0.616638,0.136459 -0.568363,0.27871 c -0.0084,0.0039 -0.926889,0.462158 -0.800729,1.1599 l 0.2034,0.378479 0.0077,0.01545 0.0052,0.009 c 1.37746,2.524486 5.615405,10.966904 11.447084,18.577049 0.971303,1.26804 3.074827,3.9322 3.840154,4.77477 3.410823,3.65349 5.471223,5.48281 9.155603,8.27699 3.95924,2.87336 9.52637,3.93864 12.34823,4.24954 l 0.65526,0.0953 c 0.68616,0.11135 0.76147,-0.22529 0.94556,-0.18602 0.0116,-0.0328 -0.0129,0.58445 -0.0792,0.29158 -0.0824,-1.42252 1.79714,-5.04511 -1.90527,-12.08046 -5.78276,-10.601939 -13.82739,-18.039583 -23.571954,-26.168531 -4.093762,-3.278228 -7.413184,-4.364748 -9.763235,-6.074988 -1.873733,-1.258896 -3.25763,-2.076104 -3.943786,-2.467071 -0.591535,-0.002 -1.109049,0.142059 -1.539022,0.427464 -0.325055,0.565982 -0.671995,1.304403 -0.712547,1.775701 l 3.286596,5.454487 z M 120.45,120.56448 l -6.4e-4,0.001 c -0.16993,-0.0296 -19.46403,1.97028 -33.340985,-28.170357 -0.344365,0.402296 -0.974521,0.859948 -2.048168,0.825833 -0.740224,-0.02446 -1.595022,-0.285147 -2.539934,-0.776914 l -0.229792,-0.122941 c -0.965509,-0.523306 -1.793273,-1.092314 -2.458188,-1.69093 l 0.135815,-0.151907 -0.0058,-0.0045 -0.204688,0.09655 c 0,0 -0.102344,-0.08947 -0.255538,-0.251676 -1.481736,-1.473368 -1.808078,-2.893955 -1.819664,-3.806684 -0.108137,-1.052405 0.08947,-2.10803 0.585099,-3.139838 l 0.04634,-0.06372 c 0.03733,-0.03669 0.908867,-0.855442 2.480717,-0.878614 -0.116505,-0.476962 -0.285147,-0.896637 -0.388135,-0.944269 -4.130451,-0.91659 -9.288848,-3.930268 -12.84643,-6.270664 l -0.07338,-0.02896 c -0.02381,-0.01416 -2.402252,-1.467253 -3.741157,-2.02873 -0.360779,0.04628 -0.727351,0.06359 -1.089932,0.05156 -1.273057,-0.04049 -3.081328,-0.469689 -4.459689,-2.28504 -0.397276,-0.521762 -0.738744,-1.137242 -1.0078,-1.806598 -0.02208,-0.04094 -2.062522,-3.99779 1.834726,-6.105562 0.204431,-0.106077 0.425211,-0.212476 0.667554,-0.31231 0.02793,-0.01081 0.709328,-0.262748 1.646387,-0.233332 1.474205,0.04731 4.083334,0.852417 5.046012,5.697538 0.685512,0.685898 3.177815,2.336598 12.074022,5.900166 0.666202,-1.895296 1.936169,-2.258649 2.89138,-2.228461 0.923671,0.03019 1.757871,0.426691 2.10288,0.613485 4.428472,-5.158912 3.831143,-9.861267 3.764845,-10.293751 -0.745374,-1.368513 -0.923028,-2.659657 -0.523307,-3.832623 0.680363,-2.00015 2.767795,-2.930708 2.855335,-2.967913 l 0.01738,0.03141 -0.01223,-0.03141 c 0.433192,-0.180293 0.906292,-0.265257 1.403208,-0.247943 1.889824,0.06063 3.556938,1.500596 3.617443,1.554664 6.851903,5.386966 1.058199,18.638137 -1.278335,21.998111 0.155125,0.463445 2.0398,1.452127 3.008529,2.268305 1.31438,1.031808 4.720699,3.658638 6.001609,4.747733 1.92072,1.637505 2.02757,1.716676 3.58333,3.288526 5.93016,5.83876 7.98348,8.835059 8.00279,8.86853 10.35219,13.518429 8.3169,17.339909 7.72922,22.155879 l 0.0122,0.0476 -0.0103,0.0489 c -0.0708,0.35724 -0.28065,0.47181 -0.67908,0.45894"
         style="fill:#231f20;fill-opacity:1;fill-rule:nonzero;stroke:none"
         id="path4228"
         inkscape:connector-curvature="0" /></g></g></svg>